PathFileType	4	(X/Y/Z)	c:/Users/goper/Files/vsCode/490R/osim_files/C10/C10_Fast_01.trc
DataRate	CameraRate	NumFrames	NumMarkers	Units                	OrigDataRate	OrigDataStartFrame	OrigNumFrames
250.00	250.00	10	36	mm	250.0	809	2156
                Frame#	Time	LPSIS			LASIS			LTH1			LTH2			LTH3			LTH4			LLFE			LMFE			LSH1			LSH2			LSH3			LSH4			LLMAL			LMMAL			LCAL			LMTP5			LTOE			LMTP1			RPSIS			RASIS			RTH1			RTH2			RTH3			RTH4			RLFE			RMFE			RSH1			RSH2			RSH3			RSH4			RLMAL			RMMAL			RCAL			RMTP1			RTOE			RMTP5		
		X1	Y1	Z1	X2	Y2	Z2	X3	Y3	Z3	X4	Y4	Z4	X5	Y5	Z5	X6	Y6	Z6	X7	Y7	Z7	X8	Y8	Z8	X9	Y9	Z9	X10	Y10	Z10	X11	Y11	Z11	X12	Y12	Z12	X13	Y13	Z13	X14	Y14	Z14	X15	Y15	Z15	X16	Y16	Z16	X17	Y17	Z17	X18	Y18	Z18	X19	Y19	Z19	X20	Y20	Z20	X21	Y21	Z21	X22	Y22	Z22	X23	Y23	Z23	X24	Y24	Z24	X25	Y25	Z25	X26	Y26	Z26	X27	Y27	Z27	X28	Y28	Z28	X29	Y29	Z29	X30	Y30	Z30	X31	Y31	Z31	X32	Y32	Z32	X33	Y33	Z33	X34	Y34	Z34	X35	Y35	Z35	X36	Y36	Z36

809	3.23200	615.23462	981.37463	332.61746	456.78455	953.78522	454.84189	454.45834	724.08929	495.70346	430.09695	683.20007	493.44348	402.37234	749.80206	480.61975	387.06461	705.18121	477.05121	290.05603	488.46579	420.65359	287.46494	485.42099	300.30573	302.27319	388.12616	420.83261	282.85117	349.56885	427.35324	248.44853	415.40399	417.85883	236.76122	371.59045	418.40149	138.05869	112.23090	390.30515	0.00000	0.00000	0.00000	165.42850	30.80223	341.72562	17.93096	114.84182	409.51288	-15.69068	164.84256	350.25818	-0.71061	124.25049	301.30191	609.06934	994.52771	250.39731	455.23431	959.46899	117.39331	606.30444	734.64026	84.96568	610.71893	690.69269	86.09328	546.54974	722.28333	76.51217	558.89508	679.73218	78.82152	659.33459	470.79919	150.29216	641.69928	459.29709	259.76465	760.72559	410.49438	146.56204	771.55585	368.48193	146.61559	701.17719	386.14536	149.20979	722.84174	348.86597	146.87091	842.42773	110.24222	201.90813	840.65015	91.73838	287.48639	910.83228	69.92831	240.09204	731.97302	24.81360	278.36234	692.60986	41.19356	244.51419	739.84552	30.74291	178.60260
810	3.23600	608.57220	980.35919	333.08420	449.76776	952.83936	455.07870	447.38431	723.16852	496.13089	423.25156	682.40198	493.85867	395.33798	749.04083	481.25705	379.92279	704.47870	477.62350	282.89163	487.59213	420.13193	279.94528	484.92096	299.89969	295.24954	387.04330	420.23990	275.00610	347.62918	425.71017	241.42844	414.26389	417.35861	229.34470	370.40536	418.03873	131.95177	110.75351	389.14377	0.00000	0.00000	0.00000	159.49831	29.38955	340.57880	11.79582	113.43669	408.02521	-21.56098	163.64709	348.77637	-5.81934	123.41935	299.80661	602.54395	993.60565	250.89362	449.11508	958.32568	117.59757	600.77924	734.24591	85.38023	605.35980	690.23901	86.41756	541.06873	721.61237	76.70921	553.59790	679.07336	78.99745	655.04425	470.63925	150.28490	636.59613	458.46616	259.62961	756.83673	411.19806	146.79619	768.13892	369.28979	146.79025	697.54712	386.19809	149.25597	719.77966	349.32861	146.82832	841.34729	111.56052	201.73398	839.62091	93.03630	287.32950	909.98108	71.66909	240.06721	731.54199	24.98402	278.41553	692.53101	40.95009	244.48975	739.74829	30.70394	178.59029
811	3.24000	601.84070	979.35120	333.58340	442.98447	952.00446	455.46439	440.45413	722.34070	496.72473	415.77377	681.56732	494.19135	388.20706	748.37085	481.95523	372.61694	703.84070	478.11444	275.59613	486.87967	419.61069	272.90228	484.40921	299.65976	288.52908	386.19601	419.92078	268.32123	346.54721	425.15549	234.50209	413.10114	416.87112	223.12675	369.15002	417.28116	126.34830	109.08296	388.03207	0.00000	0.00000	0.00000	154.05975	27.70590	339.45230	6.24718	111.73505	406.56152	-26.91578	162.03621	347.29166	-11.15415	121.81783	298.32559	595.86322	992.62610	251.47243	442.91196	957.19543	117.82398	595.10651	733.81781	85.79439	599.83850	689.81213	86.77666	535.48804	720.97437	76.92119	548.11206	678.46429	79.14430	650.47729	470.36841	149.78030	631.72546	457.83212	259.60648	752.76208	411.88626	147.02293	764.56927	370.09967	146.92612	694.02692	386.28131	148.93781	716.25348	349.49414	146.85208	840.26898	113.02386	201.57474	838.55847	94.40044	287.14621	909.35126	74.00982	239.86293	731.48975	25.34744	278.43539	692.45343	40.69722	244.42773	739.66913	30.67888	178.56345
812	3.24400	595.05493	978.37695	334.08347	436.08432	951.30878	455.87326	432.91592	721.54993	497.10019	408.62003	680.92603	494.64252	380.93060	747.77032	482.50616	365.23248	703.28802	478.64297	268.41507	486.13199	419.13269	265.59717	483.76816	299.42023	281.76270	385.15213	419.39331	261.89261	345.47064	424.59897	227.66606	411.75607	416.33740	216.42586	367.74771	416.65479	121.31992	107.17008	386.99487	0.00000	0.00000	0.00000	149.77414	26.99881	338.29221	1.13601	109.67058	405.18347	-31.81420	160.02356	345.82022	-16.00749	119.89970	296.92862	589.26086	991.72229	252.02095	436.61383	956.05176	118.06242	589.26117	733.35425	86.23914	594.18402	689.35883	87.11341	529.78595	720.31085	77.11718	542.72113	677.94635	79.30602	646.04938	470.29395	149.65714	626.67096	457.13684	259.55658	748.57477	412.54309	147.17976	760.86182	370.91235	147.06448	690.08337	386.36484	148.88901	712.75897	349.85815	146.79431	839.03021	114.46503	201.31764	837.46277	95.86297	286.86765	908.58380	76.27649	239.62537	731.31293	25.72083	278.48080	692.33386	40.47942	244.39981	739.53839	30.65197	178.52310
813	3.24800	588.65869	977.59137	334.37057	429.14752	950.64667	456.17551	425.49222	720.81604	497.54752	400.82687	680.20184	494.94565	373.23062	747.45532	483.30042	357.81012	702.79492	479.04547	261.11652	485.51749	418.71780	258.27307	483.17798	299.21085	275.21765	384.07874	418.85767	253.18736	342.75781	421.58105	220.94897	410.34805	415.85220	210.06313	366.29678	416.07379	116.41130	104.45422	384.50150	0.00000	0.00000	0.00000	146.83612	27.46530	337.68933	-3.34433	107.35085	403.82611	-36.15452	157.65575	344.32874	-20.71007	116.72396	295.60672	582.84760	990.87714	252.52625	430.36734	954.98865	118.22473	583.31677	732.89471	86.68319	588.43512	688.95691	87.43060	523.87683	719.65747	77.35550	537.00189	677.35822	79.45496	640.87347	469.90366	149.70744	621.69745	456.42688	259.46588	744.25629	413.27414	147.23517	757.04651	371.73270	147.06740	685.84778	386.60999	149.09900	709.09009	350.20401	146.69336	837.73328	116.01630	200.98520	836.36725	97.33097	286.52737	907.70380	78.51670	239.40129	731.05359	26.00446	278.48788	692.31830	40.22908	244.34142	739.37628	30.64064	178.47464
814	3.25200	581.30450	976.43964	335.17032	422.13937	949.95453	456.48920	418.23328	720.17566	498.07068	393.16187	679.55743	495.31036	366.10538	746.62073	483.49869	350.20718	702.26300	479.41034	253.99248	484.56528	418.06537	250.87640	482.44153	298.96210	268.85043	383.07828	418.35660	250.77849	344.61334	425.45700	214.29974	408.82092	415.36725	203.74254	364.60263	415.48392	112.39005	102.53389	383.31171	0.00000	0.00000	0.00000	144.59361	27.87030	337.08707	-7.40551	104.79065	402.56482	-40.34145	154.64464	342.75128	-24.22004	113.65652	294.33923	575.74585	989.79425	253.34125	423.93530	953.89368	118.46748	577.19110	732.41315	87.13113	582.54901	688.51404	87.76499	517.83167	718.93286	77.61701	530.98260	676.56049	79.66724	635.89075	469.63901	149.64569	616.63239	455.64902	259.39978	739.74896	413.95071	147.28743	753.04376	372.52344	147.04425	681.62134	386.62848	149.03998	705.29773	350.53024	146.56767	836.36951	117.57964	200.62221	835.28339	98.93078	286.14233	906.80792	80.92061	239.11789	730.85205	26.34537	278.50900	692.26794	39.97589	244.29886	739.22418	30.62742	178.44005
815	3.25600	574.76233	975.71320	335.53262	415.09055	949.35150	456.82855	410.56726	719.55444	498.54077	385.42389	679.00165	495.76019	358.55557	746.15570	483.86057	342.77988	701.81775	479.68460	246.80377	483.68460	417.50912	242.84767	481.72906	298.70001	265.48920	384.72708	421.68185	244.13467	342.61053	424.77426	207.67575	407.18961	414.77966	197.67430	362.86844	414.88290	108.98718	100.31049	382.24359	0.00000	0.00000	0.00000	143.03426	28.36143	336.44040	-10.75491	101.92126	401.43671	-44.45700	151.00011	341.28549	-27.50486	109.70339	293.30365	569.19324	988.97955	253.90895	417.43292	952.81622	118.68702	571.02863	731.97510	87.54892	576.54742	688.09576	88.14960	511.60336	718.14301	77.79416	524.51031	675.76874	79.73314	630.74371	469.36560	149.52916	611.37482	454.84140	259.32550	735.23254	414.79477	147.44420	748.88739	373.33850	146.99792	677.25446	386.72269	148.88750	701.35840	350.90347	146.40553	834.95441	119.24392	200.25385	834.09619	100.56173	285.67017	905.78326	83.42155	238.77609	730.59119	26.69846	278.53546	692.22321	39.72580	244.26851	739.04498	30.62932	178.43060
816	3.26000	567.24298	974.52606	336.39752	407.92154	948.78174	457.18021	402.73071	718.92780	498.92233	377.49069	678.41956	496.11993	350.85028	745.64606	484.21396	334.69681	701.35199	480.01123	239.52155	482.94626	417.14545	236.04001	480.79559	298.52588	259.22821	383.55902	421.17462	238.31334	341.23697	424.15924	201.27217	405.49219	414.21747	191.63850	360.94482	414.22559	106.02527	97.98643	381.31229	0.00000	0.00000	0.00000	141.93613	28.81140	335.86050	-12.87604	97.71001	400.03915	-47.94583	146.80328	339.85663	-30.90219	104.43737	293.22870	561.87384	987.81079	254.86533	409.88013	951.51642	118.92194	564.70538	731.47852	88.00538	570.65564	687.72021	88.52972	505.79913	717.55243	78.00446	518.84576	675.18286	79.98229	625.42108	469.07397	149.39195	606.01990	454.04709	259.27829	730.38721	415.42303	147.36089	744.60938	374.09613	146.86757	672.76666	386.79071	148.72346	697.24817	351.19156	146.22200	833.36310	120.91435	199.81053	833.15887	102.06178	285.31589	904.66138	85.95531	238.47786	730.25824	27.09594	278.59891	692.12048	39.51701	244.26697	738.85480	30.64450	178.40161
817	3.26400	560.04529	973.49701	337.08215	400.59064	948.21704	457.51556	394.78177	718.34595	499.26855	369.45105	677.90186	496.47748	343.00507	745.19568	484.48077	326.57224	701.10370	480.45203	232.57072	481.84436	416.47061	228.75565	480.00146	298.40817	253.01291	382.30411	420.63083	232.61975	339.72559	423.52225	194.86615	403.61813	413.65945	185.29919	358.60373	413.42459	103.70672	96.00683	380.34998	0.00000	0.00000	0.00000	141.10011	29.07123	335.43613	-14.72876	92.92979	397.74207	-50.68345	141.83760	338.05743	-33.15316	98.83754	292.39914	555.18738	987.01324	255.46094	404.10095	950.51617	119.07994	558.48389	731.07874	88.45143	564.09424	687.24341	88.88211	499.31485	716.77826	78.41737	512.68604	674.54791	80.15227	619.95081	468.77103	149.20337	601.32269	453.05392	259.14929	725.38947	416.06680	147.20860	740.13501	374.87067	146.66986	668.08160	386.79590	148.57957	692.99310	351.49496	146.00002	831.68372	122.67159	199.31653	831.69800	104.22089	284.86374	903.42645	88.59373	238.16060	729.87830	27.49780	278.64417	692.00995	39.30390	244.24580	738.62030	30.67440	178.37193
818	3.26800	552.88306	972.56500	337.76578	393.25400	947.72186	457.86908	386.42307	717.69641	499.48682	361.29504	677.40375	496.80499	335.15408	744.73761	484.63141	318.78223	700.58777	480.34161	225.41951	480.90201	415.88712	221.35272	479.09882	298.30698	246.89183	381.00760	420.15137	227.07581	338.26385	422.91864	188.60176	401.75620	413.00055	180.07213	356.95032	412.84656	101.52393	93.91802	379.55164	0.00000	0.00000	0.00000	140.30815	29.28363	335.36206	-16.99084	88.51921	396.55023	-53.09980	136.16389	336.18356	-35.21041	93.30650	291.19196	547.63678	985.77649	256.56821	397.42502	949.50409	119.36891	551.79346	730.48889	88.84051	557.72504	686.71240	89.22415	493.04276	716.20294	78.54153	506.36453	673.91730	80.35241	614.37726	468.44434	149.00719	594.79968	452.39685	259.17227	720.17719	416.65961	147.03117	735.45343	375.63864	146.43723	663.51965	386.73703	148.07404	688.59412	351.75864	145.76694	829.92511	124.43331	198.79782	829.92853	105.97523	284.15884	902.08673	91.36929	237.77426	729.47772	27.93463	278.67371	691.87524	39.08464	244.20587	738.32581	30.68318	178.32950
